<svg xmlns="http://www.w3.org/2000/svg" viewBox="0 0 64 64" width="64" height="64">
  <rect width="64" height="64" rx="17" fill="#0e3b33" stroke="none"/>
  <g transform="translate(32 33) scale(1.1) translate(-32 -33)">
    <path d="M40.5 24 C48.5 31.5 47.5 44 35.5 50.5" fill="none" stroke="#ffffff" stroke-width="5" stroke-linecap="round"/>
    <g transform="rotate(40 33 26)">
      <rect x="27.7" y="7" width="10.6" height="29" rx="3.6" fill="#ffffff" stroke="none"/>
      <rect x="26" y="19.4" width="14" height="3" rx="1.5" fill="#0e3b33" stroke="none"/>
    </g>
    <path d="M14.5 39 H31" fill="none" stroke="#ffffff" stroke-width="4.2" stroke-linecap="round"/>
    <path d="M33 54 C31 47 24.5 43 16 44.2 C18.4 51 25.4 55.6 33 54 Z" fill="#ffffff" stroke="none"/>
    <path d="M33 54 C35.4 46.6 43 42.6 51.5 43.8 C49.2 50.8 42 55.8 33 54 Z" fill="#e9a227" stroke="none"/>
  </g>
</svg>
